<svg xmlns="http://www.w3.org/2000/svg" xmlns:xlink="http://www.w3.org/1999/xlink" preserveAspectRatio="xMidYMid" width="32" height="32" viewBox="0 0 32 32">
  <defs>
    <style>
      .cls-1 {
        fill: #0188f5;
        filter: url(#color-overlay-1);
        fill-rule: evenodd;
      }
    </style>

    <filter id="color-overlay-1" filterUnits="userSpaceOnUse">
      <feFlood flood-color="#ebebeb"/>
      <feComposite operator="in" in2="SourceGraphic"/>
      <feBlend in2="SourceGraphic" result="solidFill"/>
    </filter>
  </defs>
  <path d="M16.000,32.000 C7.163,32.000 0.000,24.837 0.000,16.000 C0.000,7.164 7.163,0.000 16.000,0.000 C24.837,0.000 32.000,7.164 32.000,16.000 C32.000,24.837 24.837,32.000 16.000,32.000 ZM14.049,15.414 C15.119,14.923 15.722,14.120 15.722,12.973 C15.722,10.794 14.137,10.000 11.793,10.000 L6.000,10.000 L6.000,21.771 L11.964,21.771 C14.187,21.771 16.308,20.755 16.308,18.379 C16.308,16.922 15.550,15.824 14.049,15.414 ZM24.155,10.791 L19.224,10.791 L19.224,12.364 L24.155,12.364 L24.155,10.791 ZM21.501,13.072 C18.796,13.072 16.925,15.005 16.925,17.545 C16.925,20.165 18.692,22.000 21.501,22.000 C23.519,22.000 25.088,20.952 25.776,18.953 L23.622,18.953 C23.467,19.478 22.570,20.248 21.587,20.248 C20.226,20.248 19.468,19.305 19.399,17.830 L25.828,17.830 C26.000,15.226 24.535,13.072 21.501,13.072 ZM21.432,14.825 C22.621,14.825 23.157,15.128 23.381,16.306 L19.399,16.306 C19.433,15.652 19.881,14.825 21.432,14.825 ZM11.602,19.870 L8.475,19.870 L8.475,16.659 L11.654,16.659 C12.809,16.659 13.524,17.134 13.524,18.329 C13.524,19.543 12.671,19.870 11.602,19.870 ZM11.447,14.709 L8.475,14.709 L8.475,11.973 L11.241,11.973 C12.205,11.973 13.102,12.204 13.102,13.318 C13.102,14.300 12.395,14.709 11.447,14.709 Z" class="cls-1"/>
</svg>
